<svg width="0" height="0" class="hidden">
    <symbol xmlns="http://www.w3.org/2000/svg" viewBox="0 -960 960 960" id="clean_hands">
        <path
            d="m560-60-280-78v58H40v-440h318l248 92q33 12 53.5 42t20.5 66h80q50 0 85 33t35 87v40L560-60ZM120-160h80v-280h-80v280Zm438 16 238-74q-3-11-13.5-16.5T760-240H568q-31 0-56-4t-54-14l-69-24 23-76 80 26q18 6 42 9t66 3q0-11-5.5-20.5T578-354l-234-86h-64v220l278 76ZM200-300Zm400-20Zm-400 20Zm80 0Zm320-194-80-30q-2-48-36.5-82T400-640q-33 0-60.5 16.5T296-580h-86q17-51 56.5-88t93.5-48v-84h-60v-80h220q34 0 64 11t55 30l-57 57q-14-8-29.5-13t-32.5-5h-80v84q69 14 114.5 68.5T600-520v26Zm-231-86Zm391 20q-33 0-56.5-23.5T680-640q0-23 17-57t63-103q46 69 63 103t17 57q0 33-23.5 56.5T760-560Z"></path>
    </symbol>
</svg>