<svg width="482" height="482" viewBox="0 0 482 482" fill="none" xmlns="http://www.w3.org/2000/svg">
<path d="M172.71 261.768C141.539 263.507 112.76 275.255 91.6095 265.222C69.9145 255.304 55.8467 223.605 60.6804 195.31C65.6288 167.559 88.9346 143.327 119.657 119.236C150.38 95.1457 187.647 71.0966 219.565 78.2921C251.483 85.4876 277.723 123.713 285.42 161.585C292.903 199.785 281.628 237.962 259.422 252.586C237.332 267.754 203.552 259.814 172.71 261.768Z" fill="url(#paint0_linear_35_49)"/>
<g clip-path="url(#clip0_35_49)">
<path d="M292.297 263.557H284.452L284.424 263.529C283.029 262.068 282.401 260.01 282.748 258.033C282.858 257.393 283.066 256.773 283.368 256.189L285.753 251.579L284.807 235.068C284.791 234.762 284.897 234.472 285.109 234.246C285.321 234.025 285.61 233.9 285.92 233.9H287.388C287.991 233.9 288.481 234.367 288.505 234.959L289.145 251.277L292.448 256.375C292.729 256.809 292.957 257.272 293.12 257.752C293.769 259.608 293.532 261.625 292.468 263.284L292.293 263.553H292.297V263.557Z" fill="#3F3D56"/>
<path d="M291.62 262.414C291.547 262.531 291.416 262.599 291.277 262.599H285.308C285.194 262.599 285.08 262.551 285.007 262.466C284 261.335 283.555 259.849 283.731 258.404C283.751 258.247 283.869 258.114 284.024 258.074C285.272 257.748 286.776 257.562 288.395 257.562C289.663 257.562 290.858 257.679 291.918 257.884C292.064 257.913 292.183 258.017 292.223 258.158C292.647 259.575 292.448 261.13 291.624 262.414H291.62Z" fill="#129B9B"/>
<path d="M354.592 267.048H55.4077C55.1835 267.048 55 266.867 55 266.646C55 266.424 55.1835 266.243 55.4077 266.243H354.592C354.817 266.243 355 266.424 355 266.646C355 266.867 354.817 267.048 354.592 267.048Z" fill="#3F3D56"/>
<path d="M142.843 192.265C138.46 190.968 135.582 187.683 136.418 184.929C137.253 182.175 141.485 180.991 145.868 182.288C147.626 182.783 149.24 183.685 150.574 184.921L169.08 190.642L166.177 199.162L148.241 192.615C146.439 192.925 144.588 192.804 142.843 192.261L142.843 192.265Z" fill="#A0616A"/>
<path d="M224.937 194.503L225.162 209.549C225.162 209.549 206.007 209.3 199.304 209.819C192.601 210.342 150.83 195.244 150.83 195.244L157.77 185.529L203.85 196.512L224.937 194.499V194.503Z" fill="#E6E6E6"/>
<path d="M144.209 174.042H141.355V212.291H144.209V174.042Z" fill="#129B9B"/>
<path d="M154.512 266.646H138.004L137.942 266.581C135.007 263.501 133.686 259.177 134.412 255.014C134.644 253.669 135.08 252.364 135.716 251.136L140.739 241.437L138.746 206.691C138.709 206.046 138.937 205.434 139.386 204.967C139.834 204.5 140.442 204.243 141.094 204.243H144.181C145.449 204.243 146.484 205.221 146.533 206.473L147.874 240.817L154.83 251.543C155.425 252.461 155.902 253.435 156.249 254.442C157.611 258.347 157.113 262.591 154.879 266.082L154.512 266.65L154.512 266.646Z" fill="#3F3D56"/>
<path d="M153.093 264.242C152.938 264.483 152.665 264.632 152.372 264.632H139.806C139.565 264.632 139.329 264.532 139.17 264.355C137.049 261.971 136.116 258.851 136.483 255.807C136.524 255.473 136.772 255.199 137.102 255.114C139.724 254.43 142.892 254.035 146.301 254.035C148.967 254.035 151.487 254.281 153.713 254.712C154.019 254.772 154.272 254.989 154.357 255.283C155.246 258.263 154.826 261.536 153.093 264.242Z" fill="#129B9B"/>
<path d="M212.706 173.236L215.152 189.744L195.582 191.757L196.805 170.418L212.706 173.236Z" fill="#A0616A"/>
<path d="M194.102 178.153C201.391 178.153 207.3 172.317 207.3 165.12C207.3 157.922 201.391 152.087 194.102 152.087C186.813 152.087 180.904 157.922 180.904 165.12C180.904 172.317 186.813 178.153 194.102 178.153Z" fill="#A0616A"/>
<path d="M152.979 224.253C149.244 220.944 144.441 220.199 142.248 222.59C140.054 224.982 141.302 229.604 145.037 232.914C146.509 234.258 148.294 235.225 150.247 235.736L166.25 249.558L172.851 241.864L156.375 229.056C155.658 227.2 154.492 225.554 152.979 224.253Z" fill="#A0616A"/>
<path d="M196.805 187.731L216.783 184.913L228.607 193.77L229.83 242.488L241.246 320.195L165.41 321C165.41 321 171.118 270.672 173.973 267.853C176.827 265.035 178.865 252.151 178.865 252.151L184.573 196.589L196.805 187.731Z" fill="#E6E6E6"/>
<path d="M189.262 196.387C189.262 196.387 178.661 195.582 176.215 202.829C173.769 210.077 170.915 233.832 170.915 233.832L164.391 234.637L158.683 228.597L152.567 243.092C152.567 243.092 174.176 266.444 182.331 255.976C190.485 245.508 189.262 196.387 189.262 196.387Z" fill="#E6E6E6"/>
<path d="M216.579 171.847C216.579 171.847 216.579 158.943 217.802 154.917C219.026 150.891 212.094 146.462 210.056 142.436C208.017 138.409 195.378 144.046 190.077 144.851C184.777 145.657 185.185 148.878 181.923 154.112C178.661 159.346 185.185 167.398 190.077 168.204C194.97 169.009 193.339 172.633 196.695 176.659C200.05 180.685 210.773 176.659 210.773 176.659L212.094 178.672C212.094 178.672 209.24 189.945 214.541 199.608L228.403 203.232C224.326 191.153 228.811 191.153 231.367 184.913C233.924 178.672 216.579 171.847 216.579 171.847Z" fill="#2F2E41"/>
<path d="M313.539 263.151H306.273V251.12H313.539C314.367 251.12 315.031 250.456 315.031 249.639C315.031 248.821 314.363 248.169 313.539 248.165H262.884C262.056 248.165 261.392 248.829 261.392 249.647C261.392 250.464 262.06 251.116 262.884 251.12H269.081V263.151H262.884C262.056 263.151 261.392 263.815 261.392 264.632C261.392 265.45 262.06 266.102 262.884 266.106H313.539C314.367 266.106 315.031 265.442 315.031 264.624C315.031 263.807 314.363 263.155 313.539 263.151ZM272.074 263.151L275.491 254.164L303.277 251.12V263.151H272.074Z" fill="#F2F2F2"/>
</g>
<defs>
<linearGradient id="paint0_linear_35_49" x1="158.757" y1="34.4602" x2="238.091" y2="332.357" gradientUnits="userSpaceOnUse">
<stop stop-color="#0A4F4F"/>
<stop offset="1" stop-color="#0E7575"/>
</linearGradient>
<clipPath id="clip0_35_49">
<rect width="300" height="180" fill="white" transform="translate(55 121)"/>
</clipPath>
</defs>
</svg>
